<svg width="0" height="0">
	<!-- HOME -->
	<symbol xmlns="http://www.w3.org/2000/svg" viewBox="0 0 24 24" id="bxs-home">
		<path d="m21.743 12.331-9-10c-.379-.422-1.107-.422-1.486 0l-9 10a.998.998 0 0 0-.17 1.076c.16.361.518.593.913.593h2v7a1 1 0 0 0 1 1h3a1 1 0 0 0 1-1v-4h4v4a1 1 0 0 0 1 1h3a1 1 0 0 0 1-1v-7h2a.998.998 0 0 0 .743-1.669z">
		</path>
	</symbol>
	<svg xmlns="http://www.w3.org/2000/svg" viewBox="0 0 1024 1024" id="logo">
		<path fill="#6AC045" d="M478.4 221.3c-44.7 0-81 36.3-81 81s36.3 81 81 81 81-36.3 81-81-36.3-81-81-81zm32.4 288.9c0-17.9-14.5-32.4-32.4-32.4S446 492.3 446 510.2s14.5 32.4 32.4 32.4 32.4-14.5 32.4-32.4zm-113.4 208c0 44.7 36.3 81 81 81s81-36.3 81-81-36.3-81-81-81c-44.8 0-81 36.2-81 81zm207.9-208c0 44.7 36.3 81 81 81s81-36.3 81-81-36.3-81-81-81-81 36.3-81 81zm-415.9 0c0 44.7 36.3 81 81 81s81-36.3 81-81-36.3-81-81-81-81 36.3-81 81zm766.4 379.1c-30-65.3-95.7-108-167.6-108.7-37.7-.6-74.2 10.6-105.5 31.6-.2.1-.3.2-.5.3-60.3 40.7-130.8 62.3-203.8 62.3-201 0-364.5-163.5-364.5-364.5s163.5-364.5 364.5-364.5 364.5 163.5 364.5 364.5c0 61.7-15.7 122.6-45.3 176.2-6.5 11.7-2.2 26.5 9.5 33s26.5 2.2 33-9.5c33.6-60.8 51.4-129.8 51.4-199.7 0-227.8-185.3-413.1-413.1-413.1S65.3 282.5 65.3 510.3s185.3 413.1 413.1 413.1c82.1 0 161.4-24.1 229.4-69.6.2-.1.5-.2.7-.4 23.4-16.1 50.8-24.1 79.3-24.2 53.1.5 101.7 32.1 123.9 80.4 4.1 8.9 12.9 14.2 22.1 14.2 3.4 0 6.8-.7 10.1-2.2 12.2-5.7 17.5-20.1 11.9-32.3z" />
	</svg>
	<!-- MOVIE PLAYER -->
	<symbol xmlns="http://www.w3.org/2000/svg" viewBox="0 0 24 24" id="bxs-movie-play">
		<path d="M20 3H4c-1.103 0-2 .897-2 2v14c0 1.103.897 2 2 2h16c1.103 0 2-.897 2-2V5c0-1.103-.897-2-2-2zm.001 6c-.001 0-.001 0 0 0h-.465l-2.667-4H20l.001 4zM15.5 15 10 18v-6l5.5 3zm-.964-6-2.667-4h2.596l2.667 4h-2.596zm-2.404 0H9.536L6.869 5h2.596l2.667 4zM4 5h.465l2.667 4H4V5z">
		</path>
	</symbol>
	<!-- SEARCH -->
	<symbol xmlns="http://www.w3.org/2000/svg" viewBox="0 0 24 24" id="bx-search">
		<path d="M10 18a7.952 7.952 0 0 0 4.897-1.688l4.396 4.396 1.414-1.414-4.396-4.396A7.952 7.952 0 0 0 18 10c0-4.411-3.589-8-8-8s-8 3.589-8 8 3.589 8 8 8zm0-14c3.309 0 6 2.691 6 6s-2.691 6-6 6-6-2.691-6-6 2.691-6 6-6z">
		</path>
	</symbol>
	<!-- SUN - LIGHT MODE -->
	<symbol xmlns="http://www.w3.org/2000/svg" viewBox="0 0 24 24" id="bx-sun">
		<path d="M6.993 12c0 2.761 2.246 5.007 5.007 5.007s5.007-2.246 5.007-5.007S14.761 6.993 12 6.993 6.993 9.239 6.993 12zM12 8.993c1.658 0 3.007 1.349 3.007 3.007S13.658 15.007 12 15.007 8.993 13.658 8.993 12 10.342 8.993 12 8.993zM10.998 19h2v3h-2zm0-17h2v3h-2zm-9 9h3v2h-3zm17 0h3v2h-3zM4.219 18.363l2.12-2.122 1.415 1.414-2.12 2.122zM16.24 6.344l2.122-2.122 1.414 1.414-2.122 2.122zM6.342 7.759 4.22 5.637l1.415-1.414 2.12 2.122zm13.434 10.605-1.414 1.414-2.122-2.122 1.414-1.414z">
		</path>
	</symbol>
	<!-- MOON - DARK MODE -->
	<symbol xmlns="http://www.w3.org/2000/svg" viewBox="0 0 24 24" id="bxs-moon">
		<path d="M12 11.807A9.002 9.002 0 0 1 10.049 2a9.942 9.942 0 0 0-5.12 2.735c-3.905 3.905-3.905 10.237 0 14.142 3.906 3.906 10.237 3.905 14.143 0a9.946 9.946 0 0 0 2.735-5.119A9.003 9.003 0 0 1 12 11.807z">
		</path>
	</symbol>
	<!-- FILTER -->
	<symbol xmlns="http://www.w3.org/2000/svg" viewBox="0 0 24 24" id="bx-filter">
		<path d="M7 11h10v2H7zM4 7h16v2H4zm6 8h4v2h-4z">
		</path>
	</symbol>
	<!-- Check -->
	<symbol xmlns="http://www.w3.org/2000/svg" viewBox="0 0 24 24" id="bx-check">
		<path d="m10 15.586-3.293-3.293-1.414 1.414L10 18.414l9.707-9.707-1.414-1.414z">
		</path>
	</symbol>
	<!-- Close -->
	<symbol xmlns="http://www.w3.org/2000/svg" viewBox="0 0 24 24" id="bx-close">
		<path d="M20 3H4c-1.103 0-2 .897-2 2v14c0 1.103.897 2 2 2h16c1.103 0 2-.897 2-2V5c0-1.103-.897-2-2-2zM4 19V7h16l.001 12H4z">
		</path>
		<path d="m15.707 10.707-1.414-1.414L12 11.586 9.707 9.293l-1.414 1.414L10.586 13l-2.293 2.293 1.414 1.414L12 14.414l2.293 2.293 1.414-1.414L13.414 13z">
		</path>
	</symbol>
</svg>
